HIERARCHY
ROOT Hips
{
	OFFSET -3.958830 18.904000 13.208200
	CHANNELS 6 Xposition Yposition Zposition Zrotation Yrotation Xrotation 
	JOINT LHipJoint
	{
		OFFSET 0.000000 0.000000 0.000000
		CHANNELS 3 Zrotation Yrotation Xrotation
		JOINT LeftUpLeg
		{
			OFFSET 1.800000 -1.400000 0.085000
			CHANNELS 3 Zrotation Yrotation Xrotation
			JOINT LeftLeg
			{
				OFFSET 2.215000 -6.000000 0.000000
				CHANNELS 3 Zrotation Yrotation Xrotation
				JOINT LeftFoot
				{
					OFFSET 2.500000 -6.900000 0.000000
					CHANNELS 3 Zrotation Yrotation Xrotation
					JOINT LeftToeBase
					{
						OFFSET 0.200000 -0.500000 1.950000
						CHANNELS 3 Zrotation Yrotation Xrotation
						End Site
						{
							OFFSET 0.000000 0.000000 0.000000
						}
					}
				}
			}
		}
	}
	JOINT RHipJoint
	{
		OFFSET 0.000000 0.000000 0.000000
		CHANNELS 3 Zrotation Yrotation Xrotation
		JOINT RightUpLeg
		{
			OFFSET -1.800000 -1.400000 0.085000
			CHANNELS 3 Zrotation Yrotation Xrotation
			JOINT RightLeg
			{
				OFFSET -2.215000 -6.000000 0.000000
				CHANNELS 3 Zrotation Yrotation Xrotation
				JOINT RightFoot
				{
					OFFSET -2.500000 -6.900000 0.000000
					CHANNELS 3 Zrotation Yrotation Xrotation
					JOINT RightToeBase
					{
						OFFSET -0.200000 -0.500000 1.950000
						CHANNELS 3 Zrotation Yrotation Xrotation
						End Site
						{
							OFFSET 0.000000 0.000000 0.000000
						}
					}
				}
			}
		}
	}
	JOINT LowerBack
	{
		OFFSET 0.000000 0.000000 0.000000
		CHANNELS 3 Zrotation Yrotation Xrotation
		JOINT Spine
		{
			OFFSET -0.087000 1.940000 -0.288900
			CHANNELS 3 Zrotation Yrotation Xrotation
			JOINT Spine1
			{
				OFFSET 0.000000 1.950000 0.060000
				CHANNELS 3 Zrotation Yrotation Xrotation
				JOINT Neck
				{
					OFFSET 0.000000 0.000000 0.000000
					CHANNELS 3 Zrotation Yrotation Xrotation
					JOINT Neck1
					{
						OFFSET 0.000000 1.600000 0.340000
						CHANNELS 3 Zrotation Yrotation Xrotation
						JOINT Head
						{
							OFFSET 0.000000 1.667000 -0.240000
							CHANNELS 3 Zrotation Yrotation Xrotation
							End Site
							{
								OFFSET 0.000000 0.000000 0.000000
							}
						}
					}
				}
				JOINT LeftShoulder
				{
					OFFSET 0.000000 0.000000 0.000000
					CHANNELS 3 Zrotation Yrotation Xrotation
					JOINT LeftArm
					{
						OFFSET 2.700000 1.550000 -0.730000
						CHANNELS 3 Zrotation Yrotation Xrotation
						JOINT LeftForeArm
						{
							OFFSET 5.450000 0.000000 0.000000
							CHANNELS 3 Zrotation Yrotation Xrotation
							JOINT LeftHand
							{
								OFFSET 3.450000 0.000000 0.000000
								CHANNELS 3 Zrotation Yrotation Xrotation
								JOINT LeftHandIndex1
								{
									OFFSET 0.750000 0.000000 0.000000
									CHANNELS 3 Zrotation Yrotation Xrotation
									End Site
									{
										OFFSET 0.000000 0.000000 0.000000
									}
								}
							}
						}
					}
				}
				JOINT RightShoulder
				{
					OFFSET 0.000000 0.000000 0.000000
					CHANNELS 3 Zrotation Yrotation Xrotation
					JOINT RightArm
					{
						OFFSET -2.700000 1.550000 -0.730000
						CHANNELS 3 Zrotation Yrotation Xrotation
						JOINT RightForeArm
						{
							OFFSET -5.450000 0.000000 0.000000
							CHANNELS 3 Zrotation Yrotation Xrotation
							JOINT RightHand
							{
								OFFSET -3.450000 0.000000 0.000000
								CHANNELS 3 Zrotation Yrotation Xrotation
								JOINT RightHandIndex1
								{
									OFFSET -0.750000 0.000000 0.000000
									CHANNELS 3 Zrotation Yrotation Xrotation
									End Site
									{
										OFFSET 0.000000 0.000000 0.000000
									}
								}
							}
						}
					}
				}
			}
		}
	}
}
MOTION
Frames: 4
Frame Time: 0.016667
0.281640 16.865040 -1.227780 -4.570496 -4.230425 2.929861 -15.034405 13.251588 3.279385 0.785498 -0.157718 -3.676115 -7.310864 4.584011 4.298566 -0.208292 3.601318 3.391884 0.713590 0.387630 0.591830 18.351353 -10.949061 3.125452 0.324835 -0.461236 -4.925181 5.769939 -4.479688 6.895617 -0.597872 -3.332665 3.382107 0.087860 -0.208990 0.259190 -3.803394 -1.432306 -8.025734 10.743224 0.437234 5.551289 -3.814937 0.921167 3.232834 3.813161 -1.890243 -13.600889 -6.763981 3.601559 49.301492 -2.044270 3.245570 -12.918190 -36.208310 -17.719353 7.462713 -44.615300 -0.101246 -3.329048 -14.852146 -17.953274 0.300607 -3.177923 3.102940 0.745870 -0.172830 0.321420 0.232950 28.748768 21.361964 9.861364 49.962402 3.907057 -4.629063 11.345592 19.496673 0.605506 2.221472 -1.361970 0.032160 -0.022170 -0.319120 -0.259940 
0.285650 16.861910 -1.227350 -4.636821 -4.070080 2.960539 -15.030134 13.235507 3.268469 0.831020 -0.165087 -3.691990 -7.299469 4.567340 4.197716 -0.211580 3.609856 3.394515 0.705780 0.378120 0.583600 18.363412 -10.941243 3.122819 0.477437 -0.473037 -4.894304 5.573957 -4.431969 6.782455 -0.593009 -3.330287 3.382649 0.086510 -0.195600 0.260780 -3.830975 -1.419255 -7.998184 10.920770 0.370865 5.441307 -3.806706 0.830065 3.291713 3.775088 -2.064178 -13.423541 -7.056434 3.633006 48.882394 -2.097950 3.131510 -12.786250 -36.091642 -17.480653 7.343761 -44.819302 -0.210383 -3.323666 -14.796329 -17.943781 0.283626 -3.193090 3.098234 0.739860 -0.164930 0.312290 0.233210 28.692900 21.198661 9.756863 49.837834 4.041408 -4.467315 11.572017 19.089059 0.628978 2.225046 -1.360412 0.027560 -0.016900 -0.311580 -0.256910 
0.289790 16.859600 -1.220940 -4.583884 -3.894811 3.001190 -15.032585 13.237992 3.274085 0.970119 -0.142361 -3.646350 -7.665432 4.651286 4.139842 -0.217118 3.667167 3.391210 0.683930 0.353080 0.563140 18.362373 -10.922813 3.120703 0.396624 -0.490160 -4.792460 5.689936 -4.445488 6.660545 -0.582806 -3.333056 3.402770 0.081600 -0.166220 0.236060 -3.829601 -1.463478 -8.001090 10.904102 0.270855 5.327023 -3.640831 0.733028 3.111665 3.605775 -2.483854 -13.446363 -7.986783 3.907798 49.020024 -1.595400 2.769950 -12.620910 -36.105153 -17.244896 7.282435 -45.051231 0.114898 -3.403552 -14.740681 -17.984784 0.254198 -3.204017 3.052695 0.747070 -0.159150 0.292080 0.234790 29.083556 21.204006 9.802070 49.515509 3.793547 -4.312332 11.545918 18.263770 0.631553 2.220069 -1.326836 -0.000690 0.022290 -0.295330 -0.257270 
0.301370 16.851490 -1.224990 -4.488821 -3.773634 2.975644 -15.025924 13.225325 3.259003 0.928779 -0.143741 -3.723302 -7.929435 4.771043 4.449347 -0.243364 3.750441 3.395963 0.638900 0.282990 0.556930 18.373193 -10.929693 3.096883 0.078207 -0.462613 -4.897455 5.912634 -4.506079 6.799802 -0.553849 -3.344284 3.415590 0.062860 -0.112810 0.208910 -3.859436 -1.443861 -7.951805 11.010516 0.223209 5.212392 -3.677609 0.684272 3.371442 3.514027 -2.778038 -13.314242 -8.547181 3.951376 48.451148 -1.732990 2.515560 -12.008290 -35.768644 -17.176106 7.174891 -45.365653 -0.140609 -3.294605 -14.818390 -17.740629 0.214396 -3.254928 2.977437 0.749120 -0.134080 0.247680 0.218830 28.928122 21.266056 9.839879 49.597743 3.843007 -4.488352 11.359197 18.593486 0.601161 2.203270 -1.290591 -0.051670 0.077400 -0.261080 -0.271480 
